<mxfile host="app.diagrams.net" agent="Mozilla/5.0 (Windows NT 10.0; Win64; x64; rv:139.0) Gecko/20100101 Firefox/139.0" version="26.2.14">
  <diagram id="3228e29e-7158-1315-38df-8450db1d8a1d" name="Page-1">
    <mxGraphModel dx="1426" dy="1586" grid="1" gridSize="10" guides="1" tooltips="1" connect="1" arrows="1" fold="1" page="1" pageScale="1" pageWidth="1169" pageHeight="827" background="none" math="0" shadow="0">
      <root>
        <mxCell id="0" />
        <mxCell id="1" parent="0" />
        <mxCell id="21532" value="" style="ellipse;fillColor=#f8cecc;opacity=60;strokeColor=#b85450;html=1;aspect=fixed;" parent="1" vertex="1">
          <mxGeometry x="280" y="-10" width="271" height="271" as="geometry" />
        </mxCell>
        <mxCell id="21533" value="" style="ellipse;fillColor=#dae8fc;opacity=60;strokeColor=#6c8ebf;html=1;aspect=fixed;" parent="1" vertex="1">
          <mxGeometry x="460" y="-10" width="271" height="271" as="geometry" />
        </mxCell>
        <mxCell id="21534" value="&lt;div&gt;&lt;b style=&quot;color: rgb(184, 84, 80);&quot;&gt;A&lt;/b&gt;&lt;/div&gt;&lt;font style=&quot;font-size: 16px;&quot;&gt;Digitally-Sourced Images&lt;/font&gt;" style="text;fontSize=24;align=center;verticalAlign=middle;html=1;fontColor=#000000;" parent="1" vertex="1">
          <mxGeometry x="270" y="-40" width="190" height="70" as="geometry" />
        </mxCell>
        <mxCell id="21535" value="&lt;div&gt;&lt;b&gt;&lt;span style=&quot;color: rgb(111, 145, 192);&quot;&gt;B&lt;/span&gt;&lt;/b&gt;&lt;/div&gt;&lt;font style=&quot;font-size: 16px;&quot;&gt;Physically-Sourced Photographs&lt;/font&gt;" style="text;fontSize=24;align=center;verticalAlign=middle;html=1;fontColor=#090909;" parent="1" vertex="1">
          <mxGeometry x="550" y="-40" width="190" height="70" as="geometry" />
        </mxCell>
        <mxCell id="21540" value="a_dig" style="text;align=center;html=1;fontColor=#090909;fontSize=16;fontStyle=2" parent="1" vertex="1">
          <mxGeometry x="395.5" y="103.5" width="40" height="40" as="geometry" />
        </mxCell>
        <mxCell id="Vc19crnNjqAvpD0QkcuS-21540" value="b_phys" style="text;align=center;html=1;fontColor=#090909;fontSize=16;fontStyle=2" vertex="1" parent="1">
          <mxGeometry x="575.5" y="103.5" width="40" height="40" as="geometry" />
        </mxCell>
        <mxCell id="Vc19crnNjqAvpD0QkcuS-21550" style="rounded=0;orthogonalLoop=1;jettySize=auto;html=1;exitX=0;exitY=0.5;exitDx=0;exitDy=0;entryX=0.5;entryY=0;entryDx=0;entryDy=0;fillColor=#f8cecc;strokeColor=#b85450;" edge="1" parent="1" source="Vc19crnNjqAvpD0QkcuS-21541" target="Vc19crnNjqAvpD0QkcuS-21543">
          <mxGeometry relative="1" as="geometry" />
        </mxCell>
        <mxCell id="Vc19crnNjqAvpD0QkcuS-21551" style="rounded=0;orthogonalLoop=1;jettySize=auto;html=1;exitX=1;exitY=0.5;exitDx=0;exitDy=0;entryX=0.5;entryY=0;entryDx=0;entryDy=0;fillColor=#dae8fc;strokeColor=#6c8ebf;" edge="1" parent="1" source="Vc19crnNjqAvpD0QkcuS-21541" target="Vc19crnNjqAvpD0QkcuS-21544">
          <mxGeometry relative="1" as="geometry" />
        </mxCell>
        <mxCell id="Vc19crnNjqAvpD0QkcuS-21541" value="&lt;div&gt;&lt;b&gt;C&lt;/b&gt;&lt;/div&gt;&lt;font style=&quot;font-size: 14px;&quot;&gt;(Aâˆ©B)&lt;/font&gt;" style="text;fontSize=24;align=center;verticalAlign=middle;html=1;fontColor=#000000;" vertex="1" parent="1">
          <mxGeometry x="460" y="90.5" width="90" height="70" as="geometry" />
        </mxCell>
        <mxCell id="Vc19crnNjqAvpD0QkcuS-21543" value="" style="ellipse;whiteSpace=wrap;html=1;fillColor=#f8cecc;strokeColor=#b85450;opacity=60;" vertex="1" parent="1">
          <mxGeometry x="410" y="270" width="90" height="190" as="geometry" />
        </mxCell>
        <mxCell id="Vc19crnNjqAvpD0QkcuS-21544" value="" style="ellipse;whiteSpace=wrap;html=1;fillColor=#dae8fc;strokeColor=#6c8ebf;opacity=60;" vertex="1" parent="1">
          <mxGeometry x="510.5" y="270" width="90" height="190" as="geometry" />
        </mxCell>
        <mxCell id="Vc19crnNjqAvpD0QkcuS-21552" value="c_dig" style="text;align=center;html=1;fontColor=#090909;fontSize=16;fontStyle=2" vertex="1" parent="1">
          <mxGeometry x="435" y="345" width="40" height="40" as="geometry" />
        </mxCell>
        <mxCell id="Vc19crnNjqAvpD0QkcuS-21553" value="c_phys" style="text;align=center;html=1;fontColor=#090909;fontSize=16;fontStyle=2" vertex="1" parent="1">
          <mxGeometry x="535.5" y="345" width="40" height="40" as="geometry" />
        </mxCell>
        <mxCell id="Vc19crnNjqAvpD0QkcuS-21554" value="" style="ellipse;fillColor=#d5e8d4;opacity=40;strokeColor=#82b366;html=1;aspect=fixed;" vertex="1" parent="1">
          <mxGeometry x="660" y="107.5" width="66" height="66" as="geometry" />
        </mxCell>
        <mxCell id="Vc19crnNjqAvpD0QkcuS-21555" value="null" style="text;align=center;html=1;fontColor=#090909;fontSize=16;fontStyle=2" vertex="1" parent="1">
          <mxGeometry x="673" y="120.5" width="40" height="40" as="geometry" />
        </mxCell>
        <mxCell id="Vc19crnNjqAvpD0QkcuS-21557" value="" style="ellipse;fillColor=#ffe6cc;opacity=40;strokeColor=#d79b00;html=1;aspect=fixed;" vertex="1" parent="1">
          <mxGeometry x="290" y="90.5" width="66" height="66" as="geometry" />
        </mxCell>
        <mxCell id="Vc19crnNjqAvpD0QkcuS-21558" value="&lt;span&gt;2h&lt;/span&gt;" style="text;align=center;html=1;fontColor=#090909;fontSize=16;fontStyle=2" vertex="1" parent="1">
          <mxGeometry x="303" y="107.5" width="40" height="40" as="geometry" />
        </mxCell>
        <mxCell id="Vc19crnNjqAvpD0QkcuS-21559" value="" style="ellipse;fillColor=#fff2cc;opacity=40;strokeColor=#d6b656;html=1;aspect=fixed;" vertex="1" parent="1">
          <mxGeometry x="600.5" y="147.5" width="90" height="90" as="geometry" />
        </mxCell>
        <mxCell id="Vc19crnNjqAvpD0QkcuS-21560" value="x" style="text;align=center;html=1;fontColor=#090909;fontSize=16;fontStyle=2" vertex="1" parent="1">
          <mxGeometry x="625.5" y="172.5" width="40" height="40" as="geometry" />
        </mxCell>
      </root>
    </mxGraphModel>
  </diagram>
</mxfile>
